<svg xmlns="http://www.w3.org/2000/svg" xmlns:xlink="http://www.w3.org/1999/xlink" preserveAspectRatio="xMidYMid" width="33" height="33" viewBox="0 0 33 33">
  <defs>
    <style>
      .cls-1 {
        fill: #f789ac;
        opacity: 0.55;
        fill-rule: evenodd;
      }
    </style>
  </defs>
  <path d="M28.210,32.868 L27.427,32.994 L24.595,32.588 C24.595,32.588 6.089,27.275 0.003,7.765 C0.003,7.765 -0.208,1.601 6.151,0.007 L7.688,0.007 L12.299,9.316 C12.299,9.316 12.909,11.165 10.762,12.419 C10.762,12.419 8.867,13.418 10.404,15.522 C10.404,15.522 13.871,21.122 18.657,23.875 C18.657,23.875 19.478,24.448 19.984,23.279 C19.984,23.279 21.521,20.176 23.058,20.176 L32.280,24.831 C32.280,24.831 33.901,25.915 32.280,27.934 C32.280,27.934 30.289,31.597 28.210,32.868 Z" class="cls-1"/>
</svg>
